<?xml version="1.0" standalone="no"?>
<!DOCTYPE svg PUBLIC "-//W3C//DTD SVG 20010904//EN"
 "http://www.w3.org/TR/2001/REC-SVG-20010904/DTD/svg10.dtd">
<svg version="1.0" xmlns="http://www.w3.org/2000/svg"
 width="512.000000pt" height="512.000000pt" viewBox="0 0 512.000000 512.000000"
 preserveAspectRatio="xMidYMid meet">
<metadata>
Created by potrace 1.14, written by Peter Selinger 2001-2017
</metadata>
<g transform="translate(0.000000,512.000000) scale(0.100000,-0.100000)"
fill="#000000" stroke="none">
<path d="M2400 4722 c0 -14 -136 -257 -212 -378 -42 -66 -106 -161 -142 -210
-36 -49 -73 -102 -81 -119 -9 -16 -25 -45 -35 -62 -11 -18 -17 -33 -14 -33 4
0 1 -6 -5 -13 -27 -33 -106 -260 -126 -362 -27 -138 -34 -216 -30 -355 8 -354
142 -650 445 -984 73 -81 102 -111 319 -331 210 -214 362 -378 419 -451 72
-94 153 -296 166 -418 3 -27 7 -50 9 -52 14 -14 125 195 166 311 45 130 60
222 57 350 -6 216 -66 353 -275 630 -42 55 -88 113 -102 130 -15 16 -48 55
-74 85 -26 30 -83 94 -126 141 -271 296 -374 463 -394 641 -6 61 7 129 28 147
20 16 511 -479 837 -844 175 -196 320 -499 391 -818 7 -32 16 -54 20 -50 20
22 85 239 110 366 22 115 30 339 16 457 -32 276 -180 590 -407 865 -48 58
-286 292 -415 407 -250 223 -337 346 -440 623 -36 97 -84 267 -87 313 -2 20
-18 33 -18 14z"/>
<path d="M1487 2885 c-93 -182 -149 -423 -141 -611 6 -138 28 -225 89 -349
103 -207 262 -392 681 -790 228 -218 277 -268 343 -355 91 -121 117 -159 204
-304 32 -53 59 -96 62 -96 2 0 17 36 34 80 83 215 85 437 6 631 -53 131 -210
351 -424 594 -20 23 -61 69 -91 104 -30 35 -60 69 -65 75 -6 6 -46 52 -89 101
-43 50 -91 104 -105 120 -258 294 -364 466 -459 745 l-29 84 -16 -29z"/>
</g>
</svg>
